<mxfile host="app.diagrams.net" modified="2023-10-31T13:40:34.717Z" agent="Mozilla/5.0 (Macintosh; Intel Mac OS X 10_15_7) AppleWebKit/537.36 (KHTML, like Gecko) Chrome/118.0.0.0 Safari/537.36" etag="Hv0IVD2eA-Nk7awmI5ty" version="22.0.8" type="google">
  <diagram name="Page-1" id="hyytYMRYtb_329n9axs1">
    <mxGraphModel grid="1" page="1" gridSize="10" guides="1" tooltips="1" connect="1" arrows="1" fold="1" pageScale="1" pageWidth="827" pageHeight="1169" math="0" shadow="0">
      <root>
        <mxCell id="0" />
        <mxCell id="1" parent="0" />
        <mxCell id="3XN6_T8vnHaNcRzQ88z9-3" value="" style="edgeStyle=orthogonalEdgeStyle;rounded=0;orthogonalLoop=1;jettySize=auto;html=1;fillColor=#f5f5f5;strokeColor=#666666;gradientColor=#b3b3b3;shadow=0;strokeWidth=2;" edge="1" parent="1" source="3XN6_T8vnHaNcRzQ88z9-1" target="3XN6_T8vnHaNcRzQ88z9-2">
          <mxGeometry relative="1" as="geometry" />
        </mxCell>
        <mxCell id="3XN6_T8vnHaNcRzQ88z9-1" value="Object detection using &lt;b&gt;YOLO-v7&lt;/b&gt;" style="rounded=0;whiteSpace=wrap;html=1;fillColor=#f5f5f5;strokeColor=#666666;gradientColor=#b3b3b3;shadow=0;strokeWidth=2;" vertex="1" parent="1">
          <mxGeometry x="70" y="220" width="120" height="60" as="geometry" />
        </mxCell>
        <mxCell id="3XN6_T8vnHaNcRzQ88z9-5" value="" style="edgeStyle=orthogonalEdgeStyle;rounded=0;orthogonalLoop=1;jettySize=auto;html=1;fillColor=#f5f5f5;strokeColor=#666666;gradientColor=#b3b3b3;shadow=0;strokeWidth=2;" edge="1" parent="1" source="3XN6_T8vnHaNcRzQ88z9-2" target="3XN6_T8vnHaNcRzQ88z9-4">
          <mxGeometry relative="1" as="geometry" />
        </mxCell>
        <mxCell id="3XN6_T8vnHaNcRzQ88z9-2" value="Face extraction using &lt;b&gt;RetinaFace&lt;/b&gt;" style="whiteSpace=wrap;html=1;rounded=0;fillColor=#f5f5f5;strokeColor=#666666;gradientColor=#b3b3b3;shadow=0;strokeWidth=2;" vertex="1" parent="1">
          <mxGeometry x="270" y="220" width="120" height="60" as="geometry" />
        </mxCell>
        <mxCell id="3XN6_T8vnHaNcRzQ88z9-7" value="" style="edgeStyle=orthogonalEdgeStyle;rounded=0;orthogonalLoop=1;jettySize=auto;html=1;fillColor=#dae8fc;strokeColor=#6c8ebf;shadow=0;strokeWidth=2;" edge="1" parent="1" source="3XN6_T8vnHaNcRzQ88z9-4">
          <mxGeometry relative="1" as="geometry">
            <mxPoint x="630" y="250" as="targetPoint" />
          </mxGeometry>
        </mxCell>
        <mxCell id="3XN6_T8vnHaNcRzQ88z9-4" value="Face feature enhancement using &lt;b&gt;SwinIR&lt;/b&gt;" style="whiteSpace=wrap;html=1;rounded=0;fillColor=#dae8fc;strokeColor=#6c8ebf;shadow=0;strokeWidth=2;" vertex="1" parent="1">
          <mxGeometry x="470" y="220" width="120" height="60" as="geometry" />
        </mxCell>
        <mxCell id="3XN6_T8vnHaNcRzQ88z9-12" value="" style="edgeStyle=orthogonalEdgeStyle;rounded=0;orthogonalLoop=1;jettySize=auto;html=1;fillColor=#f5f5f5;strokeColor=#666666;gradientColor=#b3b3b3;shadow=0;strokeWidth=2;" edge="1" parent="1" source="3XN6_T8vnHaNcRzQ88z9-6" target="3XN6_T8vnHaNcRzQ88z9-11">
          <mxGeometry relative="1" as="geometry" />
        </mxCell>
        <mxCell id="3XN6_T8vnHaNcRzQ88z9-6" value="Face verification using &lt;b&gt;ArcFace&lt;/b&gt;" style="whiteSpace=wrap;html=1;rounded=0;fillColor=#dae8fc;strokeColor=#6c8ebf;shadow=0;strokeWidth=2;" vertex="1" parent="1">
          <mxGeometry x="670" y="220" width="120" height="60" as="geometry" />
        </mxCell>
        <mxCell id="3XN6_T8vnHaNcRzQ88z9-10" value="" style="edgeStyle=orthogonalEdgeStyle;rounded=0;orthogonalLoop=1;jettySize=auto;html=1;fillColor=#f5f5f5;strokeColor=#666666;gradientColor=#b3b3b3;shadow=0;strokeWidth=2;" edge="1" parent="1" source="3XN6_T8vnHaNcRzQ88z9-8" target="3XN6_T8vnHaNcRzQ88z9-1">
          <mxGeometry relative="1" as="geometry" />
        </mxCell>
        <mxCell id="3XN6_T8vnHaNcRzQ88z9-8" value="&lt;b&gt;Input:&lt;/b&gt;&lt;br&gt;Low resolution Video" style="rhombus;whiteSpace=wrap;html=1;rounded=0;fillColor=#f5f5f5;strokeColor=#666666;gradientColor=#b3b3b3;shadow=0;strokeWidth=2;" vertex="1" parent="1">
          <mxGeometry x="60" y="40" width="140" height="110" as="geometry" />
        </mxCell>
        <mxCell id="3XN6_T8vnHaNcRzQ88z9-11" value="&lt;b&gt;Output:&lt;/b&gt;&lt;br&gt;Video with tracking of target." style="rhombus;whiteSpace=wrap;html=1;rounded=0;fillColor=#f5f5f5;strokeColor=#666666;gradientColor=#b3b3b3;shadow=0;strokeWidth=2;" vertex="1" parent="1">
          <mxGeometry x="660" y="350" width="140" height="110" as="geometry" />
        </mxCell>
        <mxCell id="ZFKrkpkSTrhyoWq8vFcL-2" value="" style="edgeStyle=orthogonalEdgeStyle;rounded=0;orthogonalLoop=1;jettySize=auto;html=1;shape=flexArrow;dashed=1;fillColor=#f8cecc;gradientColor=#ea6b66;strokeColor=#b85450;" edge="1" parent="1" source="ZFKrkpkSTrhyoWq8vFcL-1">
          <mxGeometry relative="1" as="geometry">
            <mxPoint x="630" y="250" as="targetPoint" />
          </mxGeometry>
        </mxCell>
        <mxCell id="ZFKrkpkSTrhyoWq8vFcL-1" value="&lt;b&gt;Fast Gradient Sign Attack&lt;/b&gt;" style="rounded=0;whiteSpace=wrap;html=1;fillColor=#f8cecc;strokeColor=#b85450;gradientColor=#ea6b66;strokeWidth=2;" vertex="1" parent="1">
          <mxGeometry x="570" y="90" width="120" height="60" as="geometry" />
        </mxCell>
        <mxCell id="ZFKrkpkSTrhyoWq8vFcL-3" value="" style="edgeStyle=orthogonalEdgeStyle;rounded=0;orthogonalLoop=1;jettySize=auto;html=1;fillColor=#f8cecc;strokeColor=#b85450;shadow=0;strokeWidth=2;entryX=0;entryY=0.5;entryDx=0;entryDy=0;gradientColor=#ea6b66;" edge="1" parent="1" target="3XN6_T8vnHaNcRzQ88z9-6">
          <mxGeometry relative="1" as="geometry">
            <mxPoint x="630" y="250" as="sourcePoint" />
            <mxPoint x="640" y="260" as="targetPoint" />
            <Array as="points">
              <mxPoint x="640" y="250" />
              <mxPoint x="640" y="250" />
            </Array>
          </mxGeometry>
        </mxCell>
        <mxCell id="ZFKrkpkSTrhyoWq8vFcL-6" value="" style="edgeStyle=orthogonalEdgeStyle;rounded=0;orthogonalLoop=1;jettySize=auto;html=1;" edge="1" parent="1" source="ZFKrkpkSTrhyoWq8vFcL-4" target="3XN6_T8vnHaNcRzQ88z9-6">
          <mxGeometry relative="1" as="geometry" />
        </mxCell>
        <mxCell id="ZFKrkpkSTrhyoWq8vFcL-4" value="Target image" style="rounded=0;whiteSpace=wrap;html=1;fillColor=#f5f5f5;gradientColor=#b3b3b3;strokeColor=#666666;" vertex="1" parent="1">
          <mxGeometry x="685" y="170" width="90" height="20" as="geometry" />
        </mxCell>
      </root>
    </mxGraphModel>
  </diagram>
</mxfile>
